<svg width="512" height="72" viewBox="0 0 512 72" fill="none" xmlns="http://www.w3.org/2000/svg">
<mask id="mask0_101_17" style="mask-type:alpha" maskUnits="userSpaceOnUse" x="3" y="11" width="489" height="61">
<path d="M3.3576 59V25.7273H13.647V31.7926H13.9936C14.6001 29.5975 15.5894 27.9657 16.9613 26.897C18.3332 25.8139 19.929 25.2724 21.7486 25.2724C22.2396 25.2724 22.745 25.3085 23.2649 25.3807C23.7848 25.4384 24.2686 25.5323 24.7163 25.6623V34.8686C24.2108 34.6953 23.5465 34.5581 22.7234 34.457C21.9147 34.3559 21.1926 34.3054 20.5572 34.3054C19.3008 34.3054 18.1671 34.587 17.1562 35.1502C16.1598 35.699 15.3728 36.4716 14.7951 37.468C14.2319 38.45 13.9503 39.6053 13.9503 40.9339V59H3.3576ZM37.161 59.5632C35.0382 59.5632 33.1536 59.2094 31.5073 58.5018C29.8754 57.7797 28.5829 56.6966 27.6298 55.2525C26.6911 53.7939 26.2218 51.9671 26.2218 49.772C26.2218 47.9235 26.5467 46.3639 27.1966 45.093C27.8464 43.8222 28.7418 42.7897 29.8826 41.9954C31.0235 41.2011 32.3377 40.6018 33.8251 40.1974C35.3126 39.7786 36.9011 39.497 38.5907 39.3526C40.4825 39.1793 42.0061 38.9988 43.1614 38.8111C44.3167 38.6089 45.1543 38.3273 45.6742 37.9663C46.2085 37.5908 46.4757 37.0637 46.4757 36.3849V36.2766C46.4757 35.1647 46.093 34.3054 45.3276 33.6989C44.5622 33.0923 43.5297 32.7891 42.2299 32.7891C40.8291 32.7891 39.7027 33.0923 38.8507 33.6989C37.9986 34.3054 37.4571 35.143 37.226 36.2116L27.4565 35.8651C27.7453 33.8433 28.4891 32.0381 29.6877 30.4496C30.9007 28.8466 32.5615 27.5902 34.6699 26.6804C36.7928 25.7562 39.3417 25.294 42.3166 25.294C44.4395 25.294 46.3962 25.5468 48.187 26.0522C49.9777 26.5432 51.5373 27.2653 52.8659 28.2184C54.1945 29.1571 55.2199 30.3124 55.9419 31.6843C56.6784 33.0562 57.0467 34.6231 57.0467 36.3849V59H47.0822V54.3643H46.8223C46.2302 55.4908 45.472 56.4439 44.5478 57.2237C43.638 58.0036 42.5621 58.5884 41.3201 58.9783C40.0926 59.3683 38.7063 59.5632 37.161 59.5632ZM40.432 52.6314C41.5729 52.6314 42.5982 52.4003 43.508 51.9382C44.4322 51.4761 45.1687 50.8407 45.7175 50.032C46.2663 49.2088 46.5407 48.2557 46.5407 47.1726V44.0099C46.2374 44.1688 45.8691 44.3132 45.4359 44.4432C45.0171 44.5732 44.555 44.6959 44.0495 44.8114C43.5441 44.927 43.0242 45.0281 42.4899 45.1147C41.9556 45.2013 41.4429 45.2808 40.9519 45.353C39.9554 45.5118 39.1034 45.7573 38.3958 46.0895C37.7026 46.4216 37.1683 46.8549 36.7928 47.3892C36.4318 47.9091 36.2512 48.5301 36.2512 49.2521C36.2512 50.3497 36.6412 51.1873 37.421 51.7649C38.2153 52.3426 39.2189 52.6314 40.432 52.6314ZM63.5236 59V25.7273H74.1163V59H63.5236ZM68.8308 21.8498C67.3433 21.8498 66.0653 21.3588 64.9966 20.3768C63.928 19.3803 63.3936 18.1817 63.3936 16.7809C63.3936 15.3945 63.928 14.2103 64.9966 13.2283C66.0653 12.2319 67.3433 11.7337 68.8308 11.7337C70.3327 11.7337 71.6107 12.2319 72.665 13.2283C73.7336 14.2103 74.2679 15.3945 74.2679 16.7809C74.2679 18.1817 73.7336 19.3803 72.665 20.3768C71.6107 21.3588 70.3327 21.8498 68.8308 21.8498ZM91.4513 14.6364V59H80.8586V14.6364H91.4513ZM127.242 35.8867L117.516 36.1467C117.415 35.4535 117.141 34.8397 116.693 34.3054C116.245 33.7566 115.66 33.3306 114.938 33.0273C114.231 32.7096 113.407 32.5508 112.469 32.5508C111.241 32.5508 110.194 32.7963 109.328 33.2873C108.476 33.7783 108.057 34.4426 108.071 35.2802C108.057 35.93 108.317 36.4933 108.851 36.9698C109.4 37.4464 110.375 37.8291 111.776 38.1179L118.188 39.331C121.509 39.9664 123.978 41.0206 125.596 42.4936C127.228 43.9666 128.051 45.9162 128.065 48.3423C128.051 50.6241 127.372 52.6097 126.029 54.2994C124.701 55.989 122.881 57.3031 120.57 58.2418C118.26 59.1661 115.617 59.6282 112.642 59.6282C107.891 59.6282 104.143 58.6534 101.4 56.7038C98.6701 54.7398 97.1104 52.1115 96.7205 48.8189L107.183 48.5589C107.414 49.772 108.014 50.6963 108.981 51.3317C109.949 51.9671 111.183 52.2848 112.685 52.2848C114.043 52.2848 115.148 52.0321 116 51.5266C116.852 51.0212 117.285 50.3497 117.299 49.5121C117.285 48.7611 116.953 48.1618 116.303 47.7141C115.653 47.252 114.635 46.891 113.249 46.631L107.443 45.5263C104.107 44.9197 101.623 43.8005 99.9915 42.1687C98.3596 40.5224 97.5509 38.4284 97.5653 35.8867C97.5509 33.6628 98.143 31.7637 99.3416 30.1896C100.54 28.6011 102.244 27.388 104.454 26.5504C106.663 25.7128 109.27 25.294 112.274 25.294C116.779 25.294 120.332 26.2399 122.931 28.1317C125.531 30.0091 126.968 32.5941 127.242 35.8867ZM155.766 59.5632C153.643 59.5632 151.758 59.2094 150.112 58.5018C148.48 57.7797 147.187 56.6966 146.234 55.2525C145.296 53.7939 144.826 51.9671 144.826 49.772C144.826 47.9235 145.151 46.3639 145.801 45.093C146.451 43.8222 147.346 42.7897 148.487 41.9954C149.628 41.2011 150.942 40.6018 152.43 40.1974C153.917 39.7786 155.506 39.497 157.195 39.3526C159.087 39.1793 160.611 38.9988 161.766 38.8111C162.921 38.6089 163.759 38.3273 164.279 37.9663C164.813 37.5908 165.08 37.0637 165.08 36.3849V36.2766C165.08 35.1647 164.697 34.3054 163.932 33.6989C163.167 33.0923 162.134 32.7891 160.834 32.7891C159.434 32.7891 158.307 33.0923 157.455 33.6989C156.603 34.3054 156.062 35.143 155.831 36.2116L146.061 35.8651C146.35 33.8433 147.094 32.0381 148.292 30.4496C149.505 28.8466 151.166 27.5902 153.274 26.6804C155.397 25.7562 157.946 25.294 160.921 25.294C163.044 25.294 165.001 25.5468 166.791 26.0522C168.582 26.5432 170.142 27.2653 171.47 28.2184C172.799 29.1571 173.824 30.3124 174.546 31.6843C175.283 33.0562 175.651 34.6231 175.651 36.3849V59H165.687V54.3643H165.427C164.835 55.4908 164.076 56.4439 163.152 57.2237C162.242 58.0036 161.167 58.5884 159.925 58.9783C158.697 59.3683 157.311 59.5632 155.766 59.5632ZM159.036 52.6314C160.177 52.6314 161.203 52.4003 162.112 51.9382C163.037 51.4761 163.773 50.8407 164.322 50.032C164.871 49.2088 165.145 48.2557 165.145 47.1726V44.0099C164.842 44.1688 164.474 44.3132 164.04 44.4432C163.622 44.5732 163.159 44.6959 162.654 44.8114C162.149 44.927 161.629 45.0281 161.094 45.1147C160.56 45.2013 160.047 45.2808 159.556 45.353C158.56 45.5118 157.708 45.7573 157 46.0895C156.307 46.4216 155.773 46.8549 155.397 47.3892C155.036 47.9091 154.856 48.5301 154.856 49.2521C154.856 50.3497 155.246 51.1873 156.025 51.7649C156.82 52.3426 157.823 52.6314 159.036 52.6314ZM192.721 40.0241V59H182.128V25.7273H192.201V31.8359H192.569C193.306 29.7997 194.562 28.204 196.338 27.0486C198.115 25.8789 200.23 25.294 202.685 25.294C205.025 25.294 207.054 25.8211 208.772 26.8754C210.505 27.9151 211.848 29.3737 212.801 31.2511C213.769 33.114 214.246 35.2946 214.231 37.793V59H203.638V39.8725C203.653 38.024 203.184 36.5799 202.23 35.5401C201.292 34.5004 199.985 33.9805 198.31 33.9805C197.198 33.9805 196.216 34.226 195.364 34.717C194.526 35.1935 193.876 35.8795 193.414 36.7749C192.966 37.6702 192.735 38.7533 192.721 40.0241ZM232.942 59.4766C230.487 59.4766 228.255 58.8411 226.248 57.5703C224.241 56.2995 222.638 54.3932 221.439 51.8516C220.24 49.3099 219.641 46.1545 219.641 42.3853C219.641 38.4717 220.262 35.2513 221.504 32.7241C222.746 30.1969 224.371 28.3267 226.378 27.1136C228.4 25.9006 230.573 25.294 232.898 25.294C234.646 25.294 236.14 25.5973 237.382 26.2038C238.624 26.7959 239.65 27.5613 240.458 28.5C241.267 29.4387 241.881 30.4135 242.3 31.4244H242.516V14.6364H253.109V59H242.624V53.6062H242.3C241.852 54.6315 241.216 55.5919 240.393 56.4872C239.57 57.3826 238.538 58.1046 237.296 58.6534C236.068 59.2022 234.617 59.4766 232.942 59.4766ZM236.624 51.2234C237.909 51.2234 239.007 50.8623 239.917 50.1403C240.827 49.4038 241.527 48.3712 242.018 47.0426C242.509 45.714 242.754 44.1544 242.754 42.3636C242.754 40.544 242.509 38.9772 242.018 37.663C241.541 36.3488 240.841 35.3379 239.917 34.6303C239.007 33.9227 237.909 33.5689 236.624 33.5689C235.31 33.5689 234.198 33.9299 233.288 34.652C232.378 35.3741 231.685 36.3922 231.209 37.7063C230.747 39.0205 230.515 40.5729 230.515 42.3636C230.515 44.1544 230.754 45.714 231.23 47.0426C231.707 48.3712 232.393 49.4038 233.288 50.1403C234.198 50.8623 235.31 51.2234 236.624 51.2234ZM272.913 59V14.6364H283.506V31.4244H283.723C284.156 30.4135 284.77 29.4387 285.564 28.5C286.373 27.5613 287.398 26.7959 288.64 26.2038C289.896 25.5973 291.398 25.294 293.146 25.294C295.456 25.294 297.615 25.9006 299.622 27.1136C301.644 28.3267 303.276 30.1969 304.518 32.7241C305.76 35.2513 306.381 38.4717 306.381 42.3853C306.381 46.1545 305.782 49.3099 304.583 51.8516C303.399 54.3932 301.796 56.2995 299.774 57.5703C297.767 58.8411 295.536 59.4766 293.081 59.4766C291.405 59.4766 289.954 59.2022 288.726 58.6534C287.499 58.1046 286.466 57.3826 285.629 56.4872C284.806 55.5919 284.17 54.6315 283.723 53.6062H283.398V59H272.913ZM283.289 42.3636C283.289 44.1544 283.528 45.714 284.004 47.0426C284.495 48.3712 285.196 49.4038 286.105 50.1403C287.03 50.8623 288.134 51.2234 289.42 51.2234C290.719 51.2234 291.824 50.8623 292.734 50.1403C293.644 49.4038 294.33 48.3712 294.792 47.0426C295.268 45.714 295.507 44.1544 295.507 42.3636C295.507 40.5729 295.268 39.0205 294.792 37.7063C294.33 36.3922 293.644 35.3741 292.734 34.652C291.839 33.9299 290.734 33.5689 289.42 33.5689C288.12 33.5689 287.015 33.9227 286.105 34.6303C285.196 35.3379 284.495 36.3488 284.004 37.663C283.528 38.9772 283.289 40.544 283.289 42.3636ZM327.485 59.6282C324.005 59.6282 321.001 58.9422 318.474 57.5703C315.961 56.1839 314.026 54.2127 312.668 51.6566C311.325 49.0861 310.654 46.0317 310.654 42.4936C310.654 39.0566 311.333 36.0528 312.69 33.4822C314.047 30.8973 315.961 28.8899 318.43 27.4602C320.9 26.0161 323.81 25.294 327.16 25.294C329.529 25.294 331.695 25.6623 333.659 26.3988C335.623 27.1353 337.32 28.2256 338.749 29.6697C340.179 31.1139 341.291 32.8974 342.085 35.0202C342.879 37.1287 343.277 39.5476 343.277 42.277V44.9197H314.358V38.7678H333.42C333.406 37.6413 333.139 36.6377 332.619 35.7567C332.099 34.8758 331.384 34.1899 330.474 33.6989C329.579 33.1934 328.547 32.9407 327.377 32.9407C326.193 32.9407 325.131 33.2079 324.192 33.7422C323.254 34.2621 322.51 34.9769 321.961 35.8867C321.413 36.7821 321.124 37.8002 321.095 38.941V45.2013C321.095 46.5588 321.362 47.7502 321.896 48.7756C322.431 49.7865 323.189 50.5735 324.171 51.1367C325.153 51.6999 326.323 51.9815 327.68 51.9815C328.619 51.9815 329.471 51.8516 330.236 51.5916C331.002 51.3317 331.659 50.949 332.207 50.4435C332.756 49.9381 333.168 49.3171 333.442 48.5806L343.168 48.8622C342.764 51.0429 341.876 52.9419 340.504 54.5593C339.146 56.1623 337.363 57.4115 335.153 58.3068C332.944 59.1877 330.388 59.6282 327.485 59.6282ZM354.27 71.4773C352.999 71.4773 351.801 71.3762 350.674 71.174C349.548 70.9863 348.58 70.7335 347.771 70.4158L350.111 62.7259C351.151 63.0724 352.089 63.2746 352.927 63.3324C353.779 63.3902 354.508 63.253 355.115 62.9208C355.736 62.6031 356.212 62.0327 356.545 61.2095L356.956 60.2131L345.129 25.7273H356.22L362.35 49.4688H362.697L368.914 25.7273H380.069L367.527 62.1843C366.921 64.0039 366.061 65.6069 364.949 66.9933C363.852 68.3941 362.429 69.4916 360.682 70.2859C358.949 71.0801 356.812 71.4773 354.27 71.4773ZM398.59 59.6282C395.096 59.6282 392.092 58.9134 389.579 57.4837C387.081 56.0395 385.153 54.0322 383.795 51.4616C382.452 48.8767 381.781 45.8801 381.781 42.4719C381.781 39.0494 382.452 36.0528 383.795 33.4822C385.153 30.8973 387.081 28.8899 389.579 27.4602C392.092 26.0161 395.096 25.294 398.59 25.294C402.085 25.294 405.082 26.0161 407.58 27.4602C410.093 28.8899 412.021 30.8973 413.364 33.4822C414.721 36.0528 415.4 39.0494 415.4 42.4719C415.4 45.8801 414.721 48.8767 413.364 51.4616C412.021 54.0322 410.093 56.0395 407.58 57.4837C405.082 58.9134 402.085 59.6282 398.59 59.6282ZM398.655 51.6349C399.926 51.6349 401.002 51.245 401.883 50.4652C402.764 49.6854 403.435 48.6023 403.898 47.2159C404.374 45.8295 404.612 44.2266 404.612 42.407C404.612 40.5585 404.374 38.9411 403.898 37.5547C403.435 36.1683 402.764 35.0852 401.883 34.3054C401.002 33.5256 399.926 33.1357 398.655 33.1357C397.341 33.1357 396.229 33.5256 395.319 34.3054C394.424 35.0852 393.738 36.1683 393.262 37.5547C392.799 38.9411 392.568 40.5585 392.568 42.407C392.568 44.2266 392.799 45.8295 393.262 47.2159C393.738 48.6023 394.424 49.6854 395.319 50.4652C396.229 51.245 397.341 51.6349 398.655 51.6349ZM431.419 40.0241V59H420.826V25.7273H430.899V31.8359H431.267C432.004 29.7997 433.26 28.204 435.037 27.0486C436.813 25.8789 438.929 25.294 441.384 25.294C443.723 25.294 445.752 25.8211 447.471 26.8754C449.203 27.9151 450.547 29.3737 451.5 31.2511C452.467 33.114 452.944 35.2946 452.929 37.793V59H442.337V39.8725C442.351 38.024 441.882 36.5799 440.929 35.5401C439.99 34.5004 438.683 33.9805 437.008 33.9805C435.896 33.9805 434.914 34.226 434.062 34.717C433.224 35.1935 432.574 35.8795 432.112 36.7749C431.665 37.6702 431.433 38.7533 431.419 40.0241ZM471.64 59.4766C469.185 59.4766 466.954 58.8411 464.946 57.5703C462.939 56.2995 461.336 54.3932 460.137 51.8516C458.939 49.3099 458.339 46.1545 458.339 42.3853C458.339 38.4717 458.96 35.2513 460.202 32.7241C461.444 30.1969 463.069 28.3267 465.076 27.1136C467.098 25.9006 469.271 25.294 471.597 25.294C473.344 25.294 474.839 25.5973 476.081 26.2038C477.322 26.7959 478.348 27.5613 479.157 28.5C479.965 29.4387 480.579 30.4135 480.998 31.4244H481.214V14.6364H491.807V59H481.323V53.6062H480.998C480.55 54.6315 479.915 55.5919 479.092 56.4872C478.268 57.3826 477.236 58.1046 475.994 58.6534C474.766 59.2022 473.315 59.4766 471.64 59.4766ZM475.322 51.2234C476.608 51.2234 477.705 50.8623 478.615 50.1403C479.525 49.4038 480.225 48.3712 480.716 47.0426C481.207 45.714 481.453 44.1544 481.453 42.3636C481.453 40.544 481.207 38.9772 480.716 37.663C480.24 36.3488 479.539 35.3379 478.615 34.6303C477.705 33.9227 476.608 33.5689 475.322 33.5689C474.008 33.5689 472.896 33.9299 471.986 34.652C471.077 35.3741 470.383 36.3922 469.907 37.7063C469.445 39.0205 469.214 40.5729 469.214 42.3636C469.214 44.1544 469.452 45.714 469.929 47.0426C470.405 48.3712 471.091 49.4038 471.986 50.1403C472.896 50.8623 474.008 51.2234 475.322 51.2234Z" fill="#5F5F5F"/>
</mask>
<g mask="url(#mask0_101_17)">
<rect x="-27.9455" y="-147.4" width="539.891" height="412.457" fill="#7C7C7C"/>
<rect width="215.042" height="104.847" transform="matrix(0.909223 0.416309 -0.394584 0.91886 344.134 -49.6857)" fill="#7B7B7B"/>
<ellipse cx="33.1896" cy="71.3405" rx="33.1896" ry="71.3405" transform="matrix(0.832461 0.554083 -0.529539 0.848286 449.042 -22.9429)" fill="#212204"/>
<rect width="69.3799" height="216.839" transform="matrix(0.939244 0.343249 -0.324232 0.945978 281.427 -21.9143)" fill="#454545"/>
</g>
</svg>
